<svg width="32" height="32" viewBox="0 0 32 32" fill="none" xmlns="http://www.w3.org/2000/svg">
<path d="M4.53335 27.2001L27.8 17.2268C28.0405 17.1243 28.2456 16.9534 28.3898 16.7353C28.5339 16.5172 28.6108 16.2615 28.6108 16.0001C28.6108 15.7387 28.5339 15.483 28.3898 15.2649C28.2456 15.0468 28.0405 14.8759 27.8 14.7734L4.53335 4.80011C4.33189 4.71224 4.11172 4.67591 3.8927 4.69439C3.67368 4.71287 3.46271 4.78558 3.27882 4.90597C3.09493 5.02636 2.9439 5.19064 2.83936 5.38398C2.73482 5.57733 2.68006 5.79365 2.68002 6.01345L2.66669 12.1601C2.66669 12.8268 3.16002 13.4001 3.82669 13.4801L22.6667 16.0001L3.82669 18.5068C3.16002 18.6001 2.66669 19.1734 2.66669 19.8401L2.68002 25.9868C2.68002 26.9334 3.65335 27.5868 4.53335 27.2001Z" fill="white" fill-opacity="0.2"/>
</svg>
